# xmcd CD database file generated by OrangeCD 4.2
#
# Track frame offsets:
#	150
#	19917
#	36187
#	50287
#	71460
#	87885
#	102965
#	123252
#	143092
#	162240
#	181427
#	203822
#
# Disc length: 3066 seconds
#
# Revision: 2
# Processed by: cddbd v1.4PL0 Copyright (c) Steve Scherf et al.
# Submitted via: OrangeCD 4.2
#
DISCID=9d0bf80c
DTITLE=Rod Piazza and the Mighty Flyers - Alphabet Blues
DYEAR=1992
DGENRE=Blues
TTITLE0=Alphabet Blues
TTITLE1=So Glad To Have The Blues
TTITLE2=The Bounce
TTITLE3=Blues In '92
TTITLE4=Somebody
TTITLE5=Hydramatic Woman
TTITLE6=Tangled With A Woman
TTITLE7=Come On Home
TTITLE8=No Pretty Presents
TTITLE9=Can't Get That Stuff No More
TTITLE10=Skin Deep
TTITLE11=Night's End
EXTD=
EXTT0=
EXTT1=
EXTT2=
EXTT3=
EXTT4=
EXTT5=
EXTT6=
EXTT7=
EXTT8=
EXTT9=
EXTT10=
EXTT11=
PLAYORDER=
